<?xml version="1.0" encoding="UTF-8" standalone="no"?><!DOCTYPE svg PUBLIC "-//W3C//DTD SVG 1.1//EN" "http://www.w3.org/Graphics/SVG/1.1/DTD/svg11.dtd"><svg width="100%" height="100%" viewBox="0 0 4267 4267" version="1.1" xmlns="http://www.w3.org/2000/svg" xmlns:xlink="http://www.w3.org/1999/xlink" xml:space="preserve" xmlns:serif="http://www.serif.com/" style="fill-rule:evenodd;clip-rule:evenodd;stroke-linejoin:round;stroke-miterlimit:2;"><rect id="Artboard1" x="0" y="0" width="4266.67" height="4266.67" style="fill:none;"/><g id="Artboard11" serif:id="Artboard1"><path d="M815.242,1163.25l-0.025,-495.93l1246.04,-0.064c313.343,-0.016 541.018,26.306 683.025,78.967c142.007,52.661 255.682,146.324 341.025,280.991c85.343,134.666 128.019,288.669 128.028,462.007c0.012,220.007 -64.648,401.683 -193.977,545.027c-129.33,143.345 -322.665,233.691 -580.004,271.039c128.008,74.662 233.682,156.659 317.022,245.991c83.341,89.332 195.686,247.997 337.035,475.997l358.041,571.999l-708.022,0.037l-428.046,-637.998c-152.017,-227.999 -256.027,-371.664 -312.032,-430.997c-56.005,-59.332 -115.342,-99.997 -178.012,-121.994c-62.67,-21.998 -162.007,-32.993 -298.011,-32.986l-120.003,0.006l0.063,1224.04l-592.018,0.031l-0.088,-1690.66l592.469,-0l-0,-1.422l437.563,-0.023c284.008,-0.015 461.347,-12.024 532.014,-36.028c70.668,-24.005 126.001,-65.342 165.999,-124.013c39.998,-58.67 59.995,-132.007 59.99,-220.01c-0.005,-98.67 -26.343,-178.337 -79.014,-239.003c-52.672,-60.666 -127.01,-98.997 -223.013,-114.992c-48.002,-6.664 -192.007,-9.99 -432.014,-9.978l-461.525,0.024l-0,-0.055l-592.508,0Z" style="fill:#fff;fill-rule:nonzero;"/><rect x="1139.22" y="2745.16" width="1553.62" height="498" style="fill:#fff;"/></g></svg>